<?xml version="1.0" encoding="UTF-8"?>
<!-- Generator: visioncortex VTracer 0.6.5 -->
<svg version="1.1" xmlns="http://www.w3.org/2000/svg" width="1111" height="944"><rect width="1111" height="944" fill="#FFFFFF"/><g transform="translate(30,0)">
<path d="M0 0 C1.03 0.12 2.06 0.25 3.12 0.37 C19.48 2.38 35.13 5.83 51.01 10.2 C56.48 11.66 62.01 12.87 67.55 14.08 C71.23 15.06 74.5 16.5 78 18 C81.12 19 84.28 19.86 87.44 20.75 C95.4 23.06 102.84 25.91 110.36 29.36 C113.59 30.81 116.81 32.09 120.12 33.31 C126.29 35.64 132.3 38.29 138.31 41 C138.78 41.21 138.78 41.21 141.14 42.26 C146.03 44.49 150.59 46.89 155.1 49.82 C158.25 51.78 161.59 53.34 164.94 54.94 C170.06 57.45 174.94 60.02 179.61 63.32 C181.55 64.68 183.5 65.99 185.49 67.28 C193.4 72.42 200.84 77.83 208 84 C208.81 84.68 209.63 85.36 210.46 86.06 C215.43 90.29 219.28 94.66 223 100 C224.39 101.9 225.79 103.79 227.19 105.69 C229.13 108.34 230.96 110.93 232.61 113.77 C234 116 234 116 236 117 C237.1 119.03 238.13 121.1 239.12 123.19 C241.56 128.22 244.15 133.06 247 137.88 C288.12 208.91 286.36 310.64 270.49 388.56 C269.66 392.72 268.93 396.89 268.19 401.06 C266.92 408.14 265.57 415.2 264.14 422.24 C259.6 444.52 256.29 466.8 253.66 489.38 C253.56 490.25 253.46 491.13 253.35 492.03 C253.15 493.7 252.96 495.36 252.77 497.02 C252.41 500.16 252 503 251 506 C251.93 505.92 252.86 505.84 253.81 505.75 C265.27 505.82 276.54 513.33 284.38 521.12 C285.59 522.41 286.8 523.7 288 525 C288.89 525.89 289.77 526.77 290.69 527.69 C291.45 528.45 292.21 529.21 293 530 C293.38 530.32 293.38 530.32 295.3 531.95 C299.23 535.89 301.21 541.07 303.5 546.06 C303.74 546.58 303.74 546.58 304.97 549.22 C309.89 559.8 314.21 570.49 318.21 581.46 C320.34 587.28 322.57 593.06 324.88 598.81 C325.2 599.63 325.53 600.45 325.87 601.29 C327.68 605.79 329.53 610.28 331.4 614.77 C331.8 615.73 332.21 616.7 332.62 617.7 C333.39 619.54 334.16 621.39 334.94 623.23 C338.71 632.29 341.2 641.2 342 651 C342.62 651.16 343.24 651.32 343.88 651.48 C357.36 655.03 370.2 659.8 383.1 665.03 C390.01 667.82 397 670.43 404 673 C404.84 673.31 405.69 673.62 406.56 673.94 C415.26 677.13 423.97 680.31 432.73 683.34 C439.82 685.8 446.77 688.49 453.69 691.39 C460.41 694.2 467.21 696.75 474.04 699.27 C487.06 704.09 500.03 709.06 513 714 C513 775.71 513 837.42 513 901 C380.01 901 247.02 901 110 901 C110 894.4 110 887.8 110 881 C106.72 877.32 105.1 876.26 101 874 C99.11 872.55 97.28 871.04 95.46 869.51 C81.42 857.78 81.42 857.78 73.81 856.44 C68.29 857.54 64.26 861.49 60 865 C59.34 864.67 58.68 864.34 58 864 C59.33 857.24 61.76 853.2 67.49 849.27 C71.92 847.03 75.2 846.73 80 848 C88.79 851.85 96.12 857.39 103.28 863.7 C106.08 866.07 108.92 868.02 112 870 C111.97 869.42 111.95 868.83 111.92 868.23 C111.35 853.22 112.35 838.74 114.31 823.88 C114.42 823.06 114.53 822.24 114.64 821.39 C116.56 806.83 118.93 792.4 122.69 778.19 C123.13 776.49 123.57 774.8 124.01 773.11 C124.2 772.39 124.39 771.66 124.59 770.92 C125 769 125 769 125 766 C118.25 773.93 111.57 781.92 105 790 C103.48 791.85 101.96 793.71 100.44 795.56 C96.93 799.84 93.47 804.16 90.02 808.48 C87.93 811.09 85.81 813.67 83.69 816.25 C79.73 821.07 75.86 825.95 72.03 830.87 C69.29 834.38 66.48 837.83 63.62 841.25 C56.03 850.73 52.62 860.6 52.75 872.69 C52.75 873.57 52.76 874.45 52.76 875.36 C52.84 881.19 53.33 886.77 54.56 892.49 C55.06 895.36 55.07 898.09 55 901 C52.03 901 49.06 901 46 901 C42.32 881.05 39.42 860.06 51.24 842.12 C52.6 840.22 54.01 838.35 55.44 836.5 C55.96 835.82 56.47 835.14 57.01 834.43 C62.37 827.43 67.93 820.59 73.54 813.78 C75.58 811.3 77.6 808.8 79.62 806.31 C82.91 802.29 86.26 798.33 89.62 794.38 C93.24 790.12 96.74 785.8 100.13 781.37 C102.95 777.8 105.92 774.35 108.87 770.88 C112.43 766.69 115.89 762.43 119.31 758.12 C122.1 754.62 124.96 751.16 127.95 747.82 C133.42 741.52 137.39 735.02 141.34 727.7 C144.85 721.19 148.71 715.04 153 709 C153.68 708.03 154.37 707.06 155.07 706.06 C160.44 698.67 166.42 692.04 172.68 685.41 C175.54 682.35 178.29 679.2 181 676 C181.75 675.13 182.51 674.25 183.28 673.35 C187.7 668.12 191.35 663.3 194 657 C202.18 637.69 212.76 619.88 224.36 602.42 C224.98 601.48 225.61 600.53 226.25 599.56 C226.51 599.18 226.51 599.18 227.83 597.25 C229.4 594.23 229.98 592.46 230 589 C228.98 586.47 227.75 584.13 226.46 581.73 C224 577.11 222.06 572.27 220.06 567.44 C219.63 566.39 219.19 565.33 218.74 564.25 C213.09 550.48 208.41 536.66 204.61 522.27 C204.01 520.04 203.37 517.81 202.72 515.59 C197.16 496.23 194.05 476.16 195 456 C193.85 456.95 192.71 457.91 191.56 458.88 C190.92 459.41 190.29 459.94 189.63 460.49 C188 462 188 462 187 464 C186.34 464 185.68 464 185 464 C185 464.66 185 465.32 185 466 C174.56 476.08 159.9 486.85 144.94 487.44 C136.06 487.03 129.11 484.05 122.19 478.56 C120.6 476.48 120.35 474.56 120 472 C123.85 472 125.13 472.33 128.44 473.94 C137.08 477.92 145.99 478.04 155 475 C164.67 470.62 172.58 464.51 180 457 C180.38 456.64 180.38 456.64 182.29 454.82 C203.91 433.96 219.41 406.23 220.3 375.67 C220.32 373.51 220.32 371.35 220.31 369.19 C220.31 368.05 220.3 366.92 220.3 365.75 C220.08 349.06 217.09 334.22 205 322 C196.63 315.85 187.25 313.81 177 315 C172.44 316.23 168.27 317.98 164 320 C163.05 320.43 162.09 320.85 161.11 321.29 C150.64 326.63 142.98 335.56 135 344 C135 340.8 135.55 339.58 137 336.81 C137.37 336.1 137.74 335.38 138.12 334.64 C138.41 334.1 138.7 333.56 139 333 C137.77 333.92 136.54 334.83 135.31 335.75 C134.63 336.26 133.94 336.77 133.24 337.3 C111.11 354.13 100.12 384.98 93 411 C92.34 411 91.68 411 91 411 C90.5 408.86 90.5 408.86 88 398 C87.5 399.81 87.5 399.81 85 409 C81.73 405.73 81.09 403.92 79.74 399.58 C79.34 398.33 78.95 397.07 78.54 395.78 C78.13 394.46 77.72 393.14 77.31 391.81 C76.89 390.48 76.47 389.14 76.05 387.81 C75.03 384.54 74.01 381.27 73 378 C72.95 378.92 72.9 379.83 72.85 380.77 C72.81 381.37 72.81 381.37 72.62 384.38 C72.56 385.56 72.49 386.74 72.41 387.96 C72 391 72 391 70 393 C67.47 387.58 66.02 382.33 64.75 376.5 C60.64 358.55 54.88 341.12 48.65 323.81 C48.08 322.21 47.54 320.61 47 319 C34.33 318.87 21.66 318.74 9 318.61 C3.11 318.55 -2.77 318.49 -8.66 318.43 C-10.96 318.4 -13.25 318.38 -15.55 318.36 C-16.68 318.34 -17.8 318.33 -18.97 318.32 C-24.55 318.26 -30.14 318.21 -35.72 318.16 C-37.87 318.15 -40.02 318.13 -42.16 318.11 C-43.19 318.11 -44.22 318.1 -45.28 318.09 C-50.63 318.04 -55.98 317.97 -61.33 317.84 C-63.43 317.8 -65.54 317.76 -67.65 317.72 C-70.04 317.68 -72.43 317.62 -74.83 317.54 C-82.96 317.43 -82.96 317.43 -86.69 320.26 C-89.74 323.88 -89.74 323.88 -89.62 327.14 C-89.61 327.51 -89.61 327.51 -89.58 329.38 C-89.55 329.76 -89.55 329.76 -89.44 331.69 C-89.43 332.07 -89.43 332.07 -89.38 334.03 C-89.2 339.6 -89.2 339.6 -88 342 C-84.93 358.11 -82.91 376.56 -91.88 391 C-99.74 401.47 -111.04 407.58 -122.7 412.94 C-125.17 414.08 -127.62 415.26 -130.07 416.44 C-179.07 439.75 -179.07 439.75 -202.25 432.23 C-220.25 424.17 -233.63 403.73 -241 386 C-242.09 383.03 -243.1 380.04 -244 377 C-252.6 376.45 -257.88 378.45 -265.12 382.94 C-268.25 388.04 -266.82 393.27 -266 399 C-265.81 400.6 -265.62 402.21 -265.44 403.81 C-265.37 404.34 -265.37 404.34 -265 407 C-264 406 -264 406 -263.97 403.2 C-264.03 400.87 -264.09 398.53 -264.16 396.2 C-264.01 393.14 -263.61 391.55 -262 389 C-261.31 390.45 -260.65 391.91 -260 393.38 C-259.63 394.19 -259.26 395 -258.88 395.84 C-256.59 404.08 -258.37 412.21 -260.25 420.38 C-260.36 420.88 -260.36 420.88 -260.94 423.44 C-262.55 430.46 -264.42 437.26 -267 444 C-267.27 444.72 -267.53 445.43 -267.81 446.17 C-268.3 447.48 -268.79 448.8 -269.29 450.11 C-272.12 457.67 -274.42 465.43 -276.8 473.14 C-277.48 475.37 -278.19 477.56 -278.95 479.76 C-282.07 489.01 -283.73 498.38 -279.56 507.5 C-272.91 518.93 -261.5 522.3 -249.25 525.56 C-248.85 525.66 -248.85 525.66 -246.83 526.13 C-245 527 -245 527 -244.23 529.09 C-244.16 529.72 -244.08 530.35 -244 531 C-253.79 531.93 -261.9 529.2 -271 526 C-271 526.99 -271 527.98 -271 529 C-268.03 530.65 -265.06 532.3 -262 534 C-262 534.33 -262 534.66 -262 535 C-268.58 534.55 -272.67 533.47 -277.42 528.52 C-281.11 524.03 -283.7 518.97 -286.31 513.81 C-286.49 513.47 -286.49 513.47 -287.37 511.72 C-290.01 506.35 -291.14 501.77 -291.19 495.75 C-291.2 494.88 -291.22 494.01 -291.23 493.11 C-290.92 488.96 -289.98 485.03 -289 481 C-291.79 482.28 -294.59 483.58 -297.38 484.88 C-297.77 485.06 -297.77 485.06 -299.78 485.98 C-300.16 486.16 -300.16 486.16 -302.09 487.05 C-302.79 487.38 -303.49 487.7 -304.21 488.04 C-306 489 -306 489 -308 491 C-308.06 493.86 -308 496.59 -307.81 499.44 C-307.76 500.28 -307.71 501.13 -307.66 502 C-305.53 532.68 -293.95 557.34 -279.54 584.2 C-275.28 592.2 -271.64 600.47 -267.99 608.77 C-266.18 612.84 -264.28 616.86 -262.39 620.88 C-261.6 622.66 -260.83 624.44 -260.15 626.25 C-257.79 632.5 -254.83 637.92 -251.19 643.5 C-250.65 644.33 -250.12 645.16 -249.57 646.02 C-246.39 650.95 -243.1 655.79 -239.7 660.57 C-230.04 674.33 -222.53 688.86 -216.02 704.33 C-209.46 719.89 -202.59 729.29 -186.72 736.59 C-158.24 747.39 -126.87 736.69 -100 726 C-99.57 725.83 -99.57 725.83 -97.39 724.97 C-81.68 718.66 -67.38 709.83 -53 701 C-52.18 700.5 -51.37 700.01 -50.53 699.49 C-41.25 693.83 -32.2 687.84 -23.17 681.79 C-22.46 681.32 -21.75 680.84 -21.02 680.35 C-19.74 679.49 -18.45 678.63 -17.17 677.77 C-15.62 676.74 -14.06 675.71 -12.5 674.69 C-11.66 674.13 -10.83 673.58 -9.97 673.01 C-9.32 672.68 -8.67 672.34 -8 672 C-7.34 672.33 -6.68 672.66 -6 673 C-15.41 680.85 -24.98 688.25 -35.05 695.23 C-38.44 697.59 -41.73 700.05 -45 702.56 C-59.01 713.15 -74.25 722.26 -90 730 C-88.92 730.47 -87.85 730.95 -86.74 731.43 C-67.98 739.85 -55.54 749.88 -44.44 767.38 C-43.82 768.34 -43.2 769.3 -42.56 770.3 C-40.06 774.19 -37.57 778.08 -35.13 782.01 C-34.53 782.97 -33.92 783.93 -33.3 784.92 C-32.77 785.78 -32.24 786.64 -31.69 787.53 C-29.25 791.1 -26.34 794.17 -23.4 797.34 C-16.31 805.19 -9.1 813.7 -6 824 C-6.33 824.66 -6.66 825.32 -7 826 C-7.27 825.62 -7.27 825.62 -8.65 823.73 C-14.55 815.72 -20.7 808.12 -27.88 801.2 C-37.22 792.2 -44.35 782.51 -51 771.38 C-60.8 755.1 -60.8 755.1 -67 752 C-66.7 752.61 -66.4 753.23 -66.09 753.86 C-56 774.43 -56 774.43 -52.81 783.44 C-50.15 790.92 -46.77 797.9 -43.08 804.93 C-41.95 807.09 -40.84 809.26 -39.73 811.43 C-36.16 818.38 -32.51 824.92 -27.88 831.23 C-25.36 834.95 -23.18 838.82 -21 842.75 C-20.61 843.45 -20.22 844.15 -19.81 844.88 C-18.52 847.24 -17.26 849.62 -16 852 C-15.45 853.02 -14.9 854.04 -14.34 855.09 C-9.95 863.5 -6.68 872.02 -3.77 881.05 C-3.05 883.29 -2.31 885.54 -1.57 887.78 C-1.1 889.21 -0.63 890.64 -0.16 892.08 C0.06 892.75 0.28 893.41 0.5 894.1 C2 898.76 2 898.76 2 901 C-1.96 901 -5.92 901 -10 901 C-10.77 898.42 -11.54 895.83 -12.31 893.25 C-12.43 892.86 -12.43 892.86 -13.02 890.89 C-14.28 886.59 -15.41 882.31 -16.38 877.94 C-20.8 860.23 -31.29 844.75 -40.63 829.31 C-43.56 824.45 -46.41 819.58 -49.06 814.56 C-49.4 813.93 -49.73 813.3 -50.08 812.65 C-52.95 807.2 -55.56 801.65 -58 796 C-59.42 798.66 -60.37 801.07 -61.01 804.01 C-61.18 804.79 -61.35 805.57 -61.52 806.37 C-61.61 806.79 -61.61 806.79 -62.06 808.9 C-62.25 809.78 -62.44 810.65 -62.63 811.55 C-63.24 814.34 -63.84 817.14 -64.44 819.94 C-65.03 822.69 -65.63 825.45 -66.23 828.21 C-66.61 829.99 -67 831.78 -67.38 833.56 C-68.86 840.39 -70.4 847.2 -72 854 C-72.33 854 -72.66 854 -73 854 C-72.47 845.75 -71.37 837.79 -69.75 829.69 C-69.64 829.13 -69.64 829.13 -69.09 826.31 C-67.98 820.68 -66.81 815.07 -65.52 809.48 C-65.29 808.45 -65.05 807.42 -64.81 806.36 C-64.37 804.43 -63.91 802.49 -63.44 800.56 C-61.78 793.39 -61.7 787.46 -64.56 780.5 C-65.04 779.35 -65.51 778.19 -66 777 C-68.45 779.45 -68.99 781.42 -70.1 784.7 C-70.51 785.87 -70.91 787.05 -71.32 788.27 C-71.76 789.55 -72.19 790.84 -72.62 792.12 C-73.07 793.44 -73.52 794.76 -73.97 796.08 C-75.33 800.05 -76.66 804.03 -78 808 C-78.38 809.12 -78.75 810.23 -79.14 811.38 C-80.81 816.38 -82.48 821.38 -84.13 826.38 C-85.33 830.02 -86.57 833.65 -87.84 837.28 C-91.07 846.55 -93.87 855.84 -96.19 865.38 C-96.41 866.29 -96.64 867.21 -96.87 868.16 C-99.42 879.04 -101.08 889.95 -103 901 C-177.91 901 -252.82 901 -330 901 C-328.02 898.36 -326.04 895.72 -324 893 C-323.38 892.15 -322.76 891.31 -322.12 890.44 C-319.06 886.92 -315.57 884 -312 881 C-311.18 880.31 -310.37 879.62 -309.53 878.9 C-303.83 874.15 -297.97 869.73 -291.86 865.54 C-288.19 862.98 -285.14 860.18 -282 857 C-280.43 855.81 -278.82 854.66 -277.19 853.56 C-273.94 851.34 -270.72 849.1 -267.56 846.75 C-266.95 846.29 -266.33 845.83 -265.69 845.36 C-264 844 -262.5 842.56 -261 841 C-261.3 840.87 -261.3 840.87 -262.79 840.18 C-271.09 835.73 -277.42 826 -280.19 817.25 C-279.98 813.73 -278.97 811.92 -277.04 809.02 C-275.74 806.49 -275.45 804.2 -275.06 801.38 C-274.46 797.43 -274.1 796.13 -271.56 792.88 C-269 791 -269 791 -266 790 C-266 789.34 -266 788.68 -266 788 C-263.25 786.45 -260.5 784.91 -257.75 783.38 C-256.93 782.92 -256.11 782.46 -255.26 781.98 C-250.71 779.45 -246.14 777.05 -241.44 774.81 C-232.6 770.46 -226.18 764.57 -220 757 C-218.9 755.66 -217.8 754.33 -216.69 753 C-216.22 752.42 -215.75 751.85 -215.26 751.25 C-214 750 -214 750 -212 750 C-212 749.34 -212 748.68 -212 748 C-211.34 748 -210.68 748 -210 748 C-210 747.34 -210 746.68 -210 746 C-208.25 744.49 -208.25 744.49 -206 742.88 C-205.26 742.34 -204.51 741.8 -203.75 741.24 C-203.17 740.83 -202.6 740.42 -202 740 C-202.68 739.32 -203.36 738.64 -204.06 737.94 C-204.52 737.47 -204.98 737 -205.46 736.52 C-206.47 735.52 -207.51 734.55 -208.57 733.6 C-217.69 725.23 -222.93 714.71 -227.38 703.38 C-233.62 687.46 -241.76 673.49 -251.73 659.64 C-261.66 645.66 -269.07 630.32 -275.93 614.65 C-277.79 610.43 -279.78 606.3 -281.88 602.19 C-285.69 594.69 -289.31 587.1 -292.92 579.5 C-295.31 574.49 -297.74 569.5 -300.26 564.56 C-310.47 544.56 -317.32 524.63 -317.06 501.94 C-317.06 501.17 -317.05 500.4 -317.05 499.6 C-317.04 497.74 -317.02 495.87 -317 494 C-317.48 494.14 -317.48 494.14 -319.9 494.88 C-331.37 498.15 -345.47 500.99 -356.95 496.23 C-369.3 488.83 -374.78 476.89 -380.62 464.31 C-385.81 453.21 -385.81 453.21 -388.26 449.17 C-391.78 442.76 -392.71 434.24 -392 427 C-390.28 421.75 -388.12 418.64 -384 415 C-383.48 414.53 -382.95 414.06 -382.41 413.58 C-378.3 410 -378.3 410 -376 410 C-375.67 409.01 -375.34 408.02 -375 407 C-373.41 406.07 -371.82 405.15 -370.19 404.29 C-367.65 402.79 -365.4 401.05 -363.06 399.25 C-356.2 394.16 -348.68 390.65 -341 387 C-339.66 386.34 -338.33 385.67 -337 385 C-337.16 384.06 -337.32 383.11 -337.49 382.14 C-338.17 377.37 -338.15 372.62 -338.12 367.81 C-338.13 367.37 -338.13 367.37 -338.14 365.12 C-338.14 364.26 -338.13 363.4 -338.13 362.52 C-338.13 361.75 -338.13 360.97 -338.13 360.18 C-338 358 -337.58 356.1 -337 354 C-336.56 350.59 -336.42 347.4 -337 344 C-339.56 341.5 -339.56 341.5 -341.23 340.35 C-349.66 333.9 -352.61 322.8 -355.69 313.12 C-356.17 311.66 -356.65 310.19 -357.13 308.72 C-360.61 297.92 -363.15 287.21 -365 276 C-365.33 282.6 -365.66 289.2 -366 296 C-370.71 293.64 -371.38 291.59 -373.06 286.94 C-373.32 286.25 -373.58 285.57 -373.84 284.86 C-374.35 283.51 -374.85 282.15 -375.34 280.79 C-375.86 279.39 -376.41 278.01 -376.98 276.64 C-386.06 253.6 -380.15 224.26 -370.81 202.18 C-368.55 197.54 -365.92 193.25 -363 189 C-362.3 187.92 -361.6 186.85 -360.88 185.74 C-358.85 182.78 -356.54 180.54 -354 178 C-352.21 175.79 -350.47 173.54 -348.75 171.28 C-346.87 168.82 -344.94 166.41 -343 164 C-359.22 171.34 -376.52 179.32 -385 196 C-385.54 197.01 -386.08 198.01 -386.64 199.05 C-391.19 207.77 -394.71 216.73 -398 226 C-398.66 226 -399.32 226 -400 226 C-403.49 213.59 -401.84 199.29 -396 188 C-395.58 187.07 -395.15 186.15 -394.72 185.19 C-390.83 177.23 -385.15 171.25 -379 165 C-378.28 164.26 -377.57 163.52 -376.83 162.76 C-374.3 160.32 -371.63 158 -368 158 C-368 157.34 -368 156.68 -368 156 C-358.54 150.76 -349.48 145.89 -339 143 C-339.22 142.42 -339.43 141.83 -339.66 141.23 C-343.84 128.91 -342.42 119.04 -336.79 107.51 C-330.4 95.91 -319.81 85.17 -308.4 78.47 C-306 77 -306 77 -304.62 75.56 C-302.78 73.78 -300.97 72.74 -298.71 71.55 C-297.86 71.1 -297.01 70.65 -296.14 70.18 C-280.25 61.95 -264.49 55.64 -247.44 50.19 C-241.98 48.43 -236.87 46.58 -231.8 43.89 C-228.76 42.39 -225.63 41.52 -222.38 40.56 C-216.13 38.68 -209.98 36.62 -203.85 34.39 C-198.29 32.37 -192.69 30.44 -187.1 28.5 C-183.47 27.23 -179.86 25.95 -176.27 24.56 C-166.5 20.87 -156.37 18.1 -146.4 15.05 C-143.7 14.22 -141.02 13.37 -138.34 12.51 C-94.46 -1.36 -45.62 -5.74 0 0 Z M-271 180 C-272.75 182 -274.39 184.01 -276 186.12 C-276.49 186.76 -276.98 187.4 -277.48 188.05 C-279 190.03 -280.5 192.01 -282 194 C-282.43 194.57 -282.87 195.13 -283.32 195.71 C-309.72 230.24 -316.66 270.72 -322.38 312.75 C-322.51 313.73 -322.64 314.7 -322.78 315.71 C-325.51 335.85 -325.51 335.85 -325 345 C-324.01 344.67 -323.02 344.34 -322 344 C-319.22 343.72 -316.47 343.49 -313.69 343.31 C-312.94 343.25 -312.19 343.19 -311.42 343.13 C-306.8 342.83 -303.36 343.19 -299 345 C-299 344.34 -299 343.68 -299 343 C-298.22 343.52 -297.43 344.03 -296.62 344.56 C-295.76 345.04 -294.89 345.51 -294 346 C-293.34 345.67 -292.68 345.34 -292 345 C-290.33 348.33 -288.67 351.67 -287 355 C-287.99 354.67 -288.98 354.34 -290 354 C-290.33 354.66 -290.66 355.32 -291 356 C-290.67 356.99 -290.34 357.98 -290 359 C-291.32 358.34 -292.64 357.68 -294 357 C-294 357.66 -294 358.32 -294 359 C-294.48 358.68 -294.48 358.68 -296.94 357.06 C-301.05 354.71 -305.25 353.72 -310 354 C-310.5 354.33 -310.5 354.33 -313 356 C-311.68 356.33 -310.36 356.66 -309 357 C-310.65 357 -312.3 357 -314 357 C-314 357.66 -314 358.32 -314 359 C-316.31 359 -318.62 359 -321 359 C-321 359.99 -321 360.98 -321 362 C-322.65 362 -324.3 362 -326 362 C-328.53 366.74 -328.58 371.76 -328 377 C-326.98 379.31 -326.98 379.31 -326 381 C-325.06 380.67 -324.11 380.35 -323.14 380.01 C-308.41 374.97 -292.49 369.6 -276.75 372.62 C-272.25 373.24 -269.69 371.44 -265.94 369.06 C-261.84 366.62 -257.51 365.82 -252.87 364.91 C-247.25 363.13 -244.59 359.75 -241.81 354.75 C-238.11 348.73 -233.73 345.02 -228 341 C-227.29 340.48 -226.58 339.96 -225.84 339.42 C-219.76 335.03 -213.49 331.4 -206.81 328 C-205.8 327.48 -204.79 326.96 -203.75 326.43 C-200.84 324.94 -197.92 323.47 -195 322 C-194.28 321.63 -193.55 321.27 -192.8 320.89 C-165.19 307 -132.98 298.89 -102.5 294.38 C-101.82 294.26 -101.15 294.14 -100.45 294.02 C-97.76 293.68 -95.64 293.63 -93.25 295 C-89.98 297.61 -88.15 299.98 -87 304 C-86.67 304 -86.34 304 -86 304 C-85.75 297.38 -85.75 297.38 -88 294 C-80.71 294.27 -73.42 294.54 -66.12 294.81 C-65 294.86 -63.87 294.9 -62.71 294.94 C-47.86 295.5 -33.01 296.12 -18.17 296.8 C-17.8 296.82 -17.8 296.82 -15.91 296.9 C-8.53 297.24 -1.14 297.59 6.24 297.93 C8.34 298.03 10.43 298.13 12.53 298.23 C15.1 298.35 17.68 298.47 20.25 298.59 C26.51 298.88 32.73 299.06 39 299 C38.38 294.6 36.7 290.97 34.69 287.06 C34.39 286.47 34.1 285.87 33.79 285.26 C25.7 269.27 11.53 259.91 -3.31 250.69 C-14.43 243.67 -24.75 235.65 -34.16 226.47 C-41.09 220.44 -46.86 218.22 -55.94 217 C-71.66 214.55 -84.99 210.52 -99 203 C-100.33 202.39 -101.66 201.79 -103 201.19 C-112.46 196.46 -121.32 189.2 -129 182 C-129.33 182.99 -129.66 183.98 -130 185 C-128.88 186.4 -127.76 187.81 -126.52 189.11 C-124.76 191.3 -123.5 193.69 -122.13 196.14 C-120.25 199.23 -117.93 201.9 -115.56 204.62 C-115.1 205.17 -114.63 205.72 -114.15 206.28 C-111.24 209.68 -108.2 212.87 -105 216 C-102.33 218.67 -99.67 221.33 -97 224 C-96.64 224.35 -96.64 224.35 -94.82 226.12 C-93 228 -93 228 -92 230 C-103.2 228.81 -114.04 226.89 -125 224.31 C-125.76 224.14 -126.51 223.96 -127.29 223.78 C-146.21 219.39 -165.04 214.48 -183 207 C-183.78 206.68 -184.56 206.36 -185.36 206.02 C-200.03 199.88 -213.12 192.3 -226 183 C-225.48 187.62 -223.65 190.19 -220.81 193.81 C-219.99 194.87 -219.18 195.92 -218.36 196.97 C-217.97 197.47 -217.97 197.47 -216 200 C-214.39 202.22 -212.78 204.44 -211.19 206.67 C-210.8 207.11 -210.41 207.55 -210 208 C-209.34 208 -208.68 208 -208 208 C-207.88 208.29 -207.88 208.29 -207.27 209.75 C-205.76 212.43 -204.02 213.95 -201.69 215.94 C-199.26 218.01 -196.94 220.07 -194.72 222.37 C-191.32 225.66 -187.63 228.39 -183.81 231.19 C-182.38 232.24 -180.95 233.3 -179.52 234.36 C-178.89 234.82 -178.26 235.28 -177.62 235.75 C-176 237 -176 237 -174 239 C-189.31 239.46 -206.69 233.83 -219.51 225.59 C-222.28 223.82 -225.13 222.23 -228 220.62 C-233.81 217.23 -238.91 213.39 -244 209 C-244.96 208.2 -245.92 207.4 -246.9 206.57 C-255.89 198.86 -262.45 189.82 -269 180 C-269.66 180 -270.32 180 -271 180 Z M-131.44 306.77 C-132.68 307.13 -133.92 307.49 -135.19 307.87 C-136.45 308.24 -137.71 308.62 -139 309 C-140.15 309.33 -141.3 309.67 -142.48 310.01 C-158.34 314.63 -173.57 319.9 -188.57 326.88 C-190.77 327.9 -192.99 328.87 -195.23 329.84 C-204.54 333.9 -212.84 338.99 -221 345 C-221.62 345.45 -222.24 345.91 -222.87 346.38 C-235.38 355.76 -235.38 355.76 -236.83 362.85 C-237.99 377.75 -229.11 392.43 -222 405 C-221.34 405 -220.68 405 -220 405 C-219.89 405.27 -219.89 405.27 -219.31 406.63 C-213.69 416.78 -204.83 423.39 -194 427 C-169.53 429.3 -143.98 416.84 -122.85 405.95 C-121.21 405.11 -119.55 404.29 -117.89 403.47 C-109.07 398.98 -99.4 392.19 -95 383 C-88.6 362.72 -94.96 334.44 -103.54 315.62 C-105.94 311.32 -108.28 307.86 -112.75 305.62 C-119.52 304.32 -124.8 304.8 -131.44 306.77 Z M-325 347 C-325 347.33 -325 347.66 -325 348 C-322.69 348.17 -322.69 348.17 -311 349 C-314.78 345.22 -320.09 345.66 -325 347 Z M-325 350 C-325.33 350.66 -325.66 351.32 -326 352 C-324.68 352 -323.36 352 -322 352 C-322 351.34 -322 350.68 -322 350 C-322.99 350 -323.98 350 -325 350 Z M-308.38 382.88 C-309.43 383.14 -310.48 383.41 -311.57 383.69 C-316.18 384.89 -320.6 386.16 -325 388 C-324.32 400.83 -318.9 412.69 -313.77 424.3 C-307.83 437.92 -307.86 451.43 -307.94 466.06 C-307.94 467.71 -307.95 469.35 -307.95 471 C-307.96 475 -307.98 479 -308 483 C-303.3 481.5 -299.14 479.59 -294.88 477.12 C-294.57 476.96 -294.57 476.96 -293.04 476.1 C-286.31 472.25 -283.6 469.05 -281.56 461.62 C-281.14 460.19 -280.72 458.76 -280.3 457.34 C-280.09 456.62 -279.88 455.89 -279.66 455.15 C-278.29 450.67 -276.63 446.29 -275.02 441.89 C-272.78 435.53 -272.78 429.71 -272.75 423 C-272.73 421.91 -272.71 420.81 -272.69 419.69 C-272.68 418.64 -272.68 417.58 -272.67 416.5 C-272.66 415.54 -272.65 414.58 -272.64 413.59 C-273.06 410.57 -273.89 409.18 -276 407 C-276.66 407 -277.32 407 -278 407 C-278.66 412.94 -279.32 418.88 -280 425 C-295.08 428.26 -295.08 428.26 -301.45 424.36 C-304.13 422.01 -304.91 419.34 -306 416 C-308.19 419.28 -308.35 420.83 -308.62 424.69 C-308.7 425.68 -308.77 426.68 -308.85 427.7 C-308.9 428.46 -308.95 429.22 -309 430 C-311.11 423.86 -312.76 418.51 -312 412 C-310 408.62 -310 408.62 -308 406 C-308 405.34 -308 404.68 -308 404 C-297.8 400.25 -290.57 399.78 -280 402 C-278 402.34 -276 402.68 -274 403 C-276.04 386.81 -276.04 386.81 -281.5 381.62 C-290.07 377.65 -299.66 380.53 -308.38 382.88 Z M-342.96 396.41 C-343.91 396.93 -344.85 397.44 -345.83 397.97 C-346.81 398.52 -347.8 399.06 -348.81 399.62 C-349.3 399.89 -349.3 399.89 -351.76 401.21 C-356.78 403.96 -361.27 406.78 -365.51 410.64 C-367.62 412.56 -369.91 414.22 -372.19 415.94 C-376.42 419.29 -378.75 422.12 -381 427 C-381.33 427.66 -381.66 428.32 -382 429 C-383.02 437.23 -380.78 444.35 -378 452 C-377.73 452.76 -377.46 453.52 -377.19 454.31 C-372.44 467.63 -366.52 483.06 -354.03 491.08 C-344.56 495.39 -331.65 492.32 -322.16 489.01 C-320 488 -320 488 -317 486 C-315.21 480.64 -315.81 474.83 -315.81 469.22 C-315.81 466.97 -315.79 464.72 -315.78 462.46 C-315.74 454.78 -315.96 447.45 -318 440 C-318.18 439.34 -318.35 438.68 -318.54 438 C-321.43 427.79 -325.2 417.89 -329 408 C-329.54 406.58 -330.07 405.17 -330.61 403.75 C-330.84 403.12 -331.08 402.48 -331.33 401.83 C-332.28 399.24 -333.15 396.62 -334 394 C-338.15 394 -339.43 394.5 -342.96 396.41 Z M-289 405 C-289 405.99 -289 406.98 -289 408 C-287.68 408 -286.36 408 -285 408 C-285 407.34 -285 406.68 -285 406 C-286.32 405.67 -287.64 405.34 -289 405 Z M456 821 C455.66 821.79 455.32 822.57 454.97 823.38 C449.95 834.26 444.21 839.82 433 844 C433 844.66 433 845.32 433 846 C433.79 846.34 434.57 846.68 435.38 847.03 C446.26 852.05 451.82 857.79 456 869 C456.66 869 457.32 869 458 869 C458.34 868.21 458.68 867.43 459.03 866.62 C464.05 855.74 469.79 850.18 481 846 C481 845.34 481 844.68 481 844 C480.21 843.66 479.43 843.32 478.62 842.97 C467.74 837.95 462.18 832.21 458 821 C457.34 821 456.68 821 456 821 Z " fill="#000000" transform="translate(598,43)"/>
<path d="M0 0 C6.82 1.23 13.39 2.89 20 5 C19.84 4.83 19.84 4.83 19 4 C17.67 2.67 16.33 1.33 15 0 C18.85 0.6 21.86 1.77 25.31 3.56 C25.75 3.79 25.75 3.79 27.99 4.94 C28.65 5.29 29.32 5.64 30 6 C28.02 5.01 26.04 4.02 24 3 C24.33 2.34 24.66 1.68 25 1 C26.92 1.74 28.84 2.49 30.75 3.25 C31.82 3.67 32.88 4.09 33.98 4.52 C37 6 38.8 7.5 41 10 C37.82 10.96 36.16 11.05 32.94 10.06 C28.36 8.67 23.82 8.55 19.06 8.38 C18.19 8.34 17.31 8.3 16.41 8.26 C14.28 8.16 12.14 8.08 10 8 C10.89 8.11 11.79 8.22 12.71 8.33 C20.06 9.3 26.99 10.58 34 13 C31.03 13.91 28.94 14.02 25.89 13.44 C25.51 13.37 25.51 13.37 23.61 13.02 C22.83 12.87 22.05 12.72 21.25 12.56 C20.46 12.41 19.66 12.27 18.85 12.12 C16.9 11.75 14.95 11.38 13 11 C12.67 11.66 12.34 12.32 12 13 C9.69 13.73 7.35 14.4 5 15 C14.41 14.04 14.41 14.04 19 13 C18.67 13.66 18.34 14.32 18 15 C15.33 15.74 12.7 16.36 10 16.94 C0.67 19.03 -7.49 21.51 -15.93 26.11 C-16.27 26.26 -16.27 26.26 -18 27 C-18.66 26.67 -19.32 26.34 -20 26 C-22.57 27.08 -24.67 28.44 -27 30 C-25.8 27.51 -24.55 25.32 -23 23 C-28.68 25.25 -30.8 28.01 -34 33 C-34.33 32.01 -34.66 31.02 -35 30 C-35.09 30.28 -35.09 30.28 -35.56 31.69 C-37.66 35.07 -40.71 36.85 -44 39 C-44 37.35 -44 35.7 -44 34 C-44.37 34.89 -44.74 35.77 -45.12 36.69 C-47.33 40.58 -49.46 42.33 -53 45 C-52.34 42.69 -51.68 40.38 -51 38 C-52.79 40.76 -54.02 43.07 -54.94 46.25 C-55.29 47.16 -55.64 48.06 -56 49 C-58.12 49.88 -58.12 49.88 -60 50 C-60.17 49.18 -60.17 49.18 -61 45 C-61.99 46.32 -62.98 47.64 -64 49 C-64.33 46.03 -64.66 43.06 -65 40 C-65.33 44.29 -65.66 48.58 -66 53 C-66.66 52.67 -67.32 52.34 -68 52 C-68.49 43.23 -66.76 34.84 -61 28 C-60.01 28 -59.02 28 -58 28 C-53.75 26.63 -52.36 23.61 -50 20 C-49.34 20 -48.68 20 -48 20 C-48.31 20.74 -48.62 21.49 -48.94 22.25 C-49.81 24.51 -50.48 26.65 -51 29 C-50.67 28.34 -50.34 27.68 -50 27 C-49.34 27 -48.68 27 -48 27 C-47.71 26.38 -47.42 25.76 -47.12 25.12 C-46 23 -46 23 -44 21 C-43.34 21 -42.68 21 -42 21 C-41.64 20.7 -41.64 20.7 -39.81 19.19 C-35.95 16.18 -32 14.4 -27.19 13.44 C-25 13 -25 13 -23 11 C-18.53 8.02 -15.69 7.77 -10.41 7.48 C-8 7 -8 7 -6.54 5.47 C-5 4 -5 4 -2.3 3.71 C-1.31 3.74 -0.33 3.78 0.69 3.81 C1.68 3.84 2.68 3.87 3.7 3.89 C4.46 3.93 5.22 3.96 6 4 C4.02 3.01 2.04 2.02 0 1 C0 0.67 0 0.34 0 0 Z M-22 14 C-21.31 13.86 -20.62 13.71 -19.91 13.56 C-14.59 12.51 -9.64 11.85 -4.21 12 C-0.44 12 3.26 11.48 7 11 C7 10.34 7 9.68 7 9 C-16.32 8.32 -16.32 8.32 -22 14 Z M-19 24 C-18.28 23.71 -17.56 23.42 -16.81 23.12 C-14.21 22.08 -11.6 21.04 -9 20 C-9 19.67 -9 19.34 -9 19 C-14.08 18.27 -15.76 20.29 -19 24 Z M-39 20 C-40.32 21.32 -41.64 22.64 -43 24 C-42.67 24.66 -42.34 25.32 -42 26 C-40.68 24.68 -39.36 23.36 -38 22 C-38.33 21.34 -38.66 20.68 -39 20 Z M-45 27 C-45 30 -45 30 -45 30 Z M-34 27 C-33 29 -33 29 -33 29 Z M-60 34 C-60.17 34.66 -60.17 34.66 -61 38 C-60.01 37.34 -59.02 36.68 -58 36 C-58 35.34 -58 34.68 -58 34 C-58.66 34 -59.32 34 -60 34 Z " fill="#000000" transform="translate(449,309)"/>
<path d="M0 0 C6.28 2.06 11.88 4.74 17 9 C17 9.66 17 10.32 17 11 C13.7 9.93 11.74 8.78 9.06 6.5 C6.02 4.02 3.76 2.98 0 2 C0 1.34 0 0.68 0 0 Z " fill="#000000" transform="translate(489,314)"/>
<path d="M0 0 C0.33 0.66 0.66 1.32 1 2 C0.54 2.73 0.07 3.46 -0.4 4.21 C-2.31 7.55 -2.43 9.86 -2.56 13.69 C-2.79 19.79 -2.79 19.79 -5 22 C-5.56 8.16 -5.56 8.16 -2 2 C-1.34 1.34 -0.68 0.68 0 0 Z " fill="#000000" transform="translate(382,342)"/>
<path d="M0 0 C1.13 3.38 0.82 4.77 0.06 8.19 C-0.13 9.09 -0.33 9.99 -0.53 10.92 C-0.68 11.61 -0.84 12.29 -1 13 C-1.66 12.34 -2.32 11.68 -3 11 C-2.79 8.65 -2.79 8.65 -2.19 5.94 C-2 5.04 -1.8 4.14 -1.61 3.21 C-1 1 -1 1 0 0 Z " fill="#000000" transform="translate(375,348)"/>
<path d="M0 0 C6.9 3.77 11.61 8.56 14.26 16 C15.1 19 15.87 21.81 16.16 24.92 C15.83 25.42 15.83 25.42 14.16 27.92 C13.79 27.11 13.41 26.31 13.03 25.47 C9.3 17.69 6.02 12 -1.84 7.92 C-7.92 6.99 -14.43 7.09 -19.84 10.28 C-28.18 17.13 -36.63 28.21 -38.84 38.92 C-38.4 38.97 -38.4 38.97 -36.21 39.2 C-28.72 40.8 -21.7 46.05 -17.34 52.3 C-13.12 59.52 -10.45 66.58 -9.84 74.92 C-13.12 71.64 -14.71 67.14 -16.65 62.95 C-18.81 58.47 -21.06 55.28 -24.84 51.92 C-25.6 51.24 -26.36 50.56 -27.15 49.86 C-29.98 47.82 -32.8 46.38 -35.97 44.95 C-37.97 43.85 -39.3 42.6 -40.84 40.92 C-41.99 43.1 -43.14 45.29 -44.27 47.48 C-44.6 48.09 -44.92 48.7 -45.26 49.33 C-47.8 54.28 -49.68 59.01 -48.06 64.59 C-47.68 65.42 -47.29 66.25 -46.9 67.11 C-44.56 73.17 -43.45 78.49 -44.84 84.92 C-46.71 88.55 -48.72 91.69 -51.09 95.01 C-52.91 98.04 -53.24 99.47 -52.84 102.92 C-49.84 103.92 -49.84 103.92 -47.71 102.88 C-43.34 99.89 -40.05 97.18 -36.84 92.92 C-32.89 90.08 -28.92 89.05 -24.21 88.17 C-23.54 88.03 -22.88 87.9 -22.19 87.75 C-18.92 87.12 -17.05 86.85 -13.84 87.92 C-18.99 91.53 -25.51 93.92 -31.84 93.92 C-32.09 94.48 -32.34 95.03 -32.59 95.61 C-34.05 98.32 -35.79 100.58 -37.71 102.98 C-38.39 103.84 -39.07 104.7 -39.77 105.58 C-43.74 110.08 -46.73 111.56 -52.64 112.06 C-56.04 111.85 -57.63 110.41 -59.84 107.92 C-62.02 101.38 -60.98 97.75 -57.96 91.67 C-56.37 88.63 -54.74 85.78 -52.84 82.92 C-52.04 77.43 -52.58 73.49 -55.84 68.92 C-58.69 61.39 -56.36 53.56 -53.39 46.48 C-40.94 20.08 -40.94 20.08 -33.84 11.92 C-33.33 11.32 -32.82 10.72 -32.3 10.1 C-23.84 0.84 -12.39 -4.71 0 0 Z " fill="#000000" transform="translate(793.8359375,370.078125)"/>
<path d="M0 0 C1.02 0.21 2.05 0.43 3.1 0.65 C12.59 2.77 12.59 2.77 16.06 5.69 C16.06 6.68 16.06 7.67 16.06 8.69 C10.2 8.88 5 8.41 -0.74 7.27 C-7.1 6.12 -13.53 5.44 -19.94 4.69 C-19.76 5.91 -19.58 7.13 -19.39 8.39 C-18.66 14.33 -19.62 19.21 -22.44 24.5 C-26.6 28.14 -31.56 30.43 -37.12 30.85 C-43.35 30.34 -48.11 27.66 -52.31 23.12 C-53.94 20.69 -53.94 20.69 -54.94 17.69 C-55.6 17.36 -56.26 17.03 -56.94 16.69 C-57.08 17.43 -57.23 18.17 -57.38 18.94 C-57.84 21.21 -58.36 23.45 -58.94 25.69 C-59.6 25.69 -60.26 25.69 -60.94 25.69 C-61.13 26.52 -61.32 27.35 -61.52 28.21 C-61.78 29.29 -62.04 30.38 -62.31 31.5 C-62.57 32.58 -62.82 33.66 -63.09 34.77 C-63.94 37.69 -63.94 37.69 -65.94 40.69 C-67.26 40.69 -68.58 40.69 -69.94 40.69 C-68.81 31.85 -67.06 23.95 -63.06 15.94 C-62.74 15.27 -62.41 14.6 -62.07 13.92 C-59.94 9.86 -57.7 7.28 -53.94 4.69 C-53.19 4.17 -52.45 3.66 -51.69 3.12 C-35.95 -5.1 -16.81 -3.5 0 0 Z M-33.94 6.69 C-34.27 8.34 -34.6 9.99 -34.94 11.69 C-33.06 12.31 -33.06 12.31 -30.94 12.69 C-30.28 12.03 -29.62 11.37 -28.94 10.69 C-29.31 8.56 -29.31 8.56 -29.94 6.69 C-31.26 6.69 -32.58 6.69 -33.94 6.69 Z " fill="#000000" transform="translate(481.9375,381.3125)"/>
<path d="M0 0 C10.07 9.34 13.53 24.58 14.2 37.89 C13.56 55.58 7.1 73.33 -5.8 85.73 C-13.74 92.96 -22.04 97.1 -32 101 C-32.66 100.34 -33.32 99.68 -34 99 C-33.46 98.75 -33.46 98.75 -30.75 97.5 C-23.06 93.86 -16.51 90.65 -11 84 C-10.58 83.61 -10.58 83.61 -8.44 81.62 C-1.72 74.39 1.88 66.3 5 57 C5.36 55.92 5.73 54.84 6.11 53.73 C9.95 37.71 6.19 22.42 0.64 7.33 C-0.06 4.79 -0.11 2.62 0 0 Z " fill="#000000" transform="translate(793,386)"/>
<path d="M0 0 C5.07 1.95 7 5.79 9.57 10.36 C12.4 17.57 12.66 26.13 9.58 33.3 C6.75 38.14 4.56 41.43 -1 43 C-1.99 43 -2.98 43 -4 43 C-3.01 40.1 -2.04 38.05 -0.06 35.69 C3.84 30.6 5.62 25.06 5.44 18.64 C4.65 13.87 2.84 9.44 1.09 4.94 C0 2 0 2 0 0 Z " fill="#000000" transform="translate(413,515)"/>
<path d="M0 0 C0.66 0 1.32 0 2 0 C2.61 16.73 0.94 32.54 -2 49 C-2.1 49.55 -2.1 49.55 -2.58 52.31 C-7.74 80.97 -19.54 102.32 -43 120 C-43.58 120.44 -44.16 120.88 -44.76 121.33 C-55.17 129.15 -65.97 136.4 -76.81 143.62 C-77.48 144.07 -78.14 144.51 -78.83 144.97 C-80.75 146.24 -82.66 147.52 -84.58 148.79 C-85.16 149.17 -85.73 149.55 -86.32 149.94 C-87.87 150.97 -89.44 151.99 -91 153 C-91.46 153.3 -91.46 153.3 -93.78 154.83 C-94.51 155.21 -95.24 155.6 -96 156 C-96.66 155.67 -97.32 155.34 -98 155 C-97.34 154.67 -97.34 154.67 -94 153 C-94 152.34 -94 151.68 -94 151 C-92.51 149.65 -90.96 148.37 -89.38 147.12 C-84.82 143.48 -80.35 139.76 -75.94 135.94 C-71.18 131.83 -66.36 127.83 -61.43 123.92 C-53.38 117.54 -45.52 111 -38 104 C-37.21 103.27 -36.43 102.54 -35.62 101.79 C-13.21 80.21 -9.04 48.81 -4.14 19.41 C-3.03 12.87 -1.56 6.44 0 0 Z " fill="#000000" transform="translate(713,542)"/>
<path d="M0 0 C2.44 2.62 2.44 2.62 4 5 C2.12 8.88 2.12 8.88 1 10 C-5.09 10.23 -5.09 10.23 -7.95 9.51 C-16.1 7.49 -24.15 9.73 -32 12 C-32.62 10.19 -32.62 10.19 -33 8 C-26.1 -3.05 -11.48 -5.02 0 0 Z " fill="#000000" transform="translate(391,546)"/>
<path d="M0 0 C0.66 0 1.32 0 2 0 C9.03 19.06 9.03 19.06 5.56 27.5 C4 30 4 30 3 31 C1.33 31.04 -0.33 31.04 -2 31 C-1.37 30.75 -0.74 30.49 -0.09 30.23 C2 29 2 29 2.93 27.33 C4.49 20.92 3.4 15.67 1.82 9.33 C1.06 6.23 0.48 3.16 0 0 Z " fill="#000000" transform="translate(366,581)"/>
<path d="M0 0 C0 0.33 0 0.66 0 1 C-0.34 0.96 -0.34 0.96 -2.04 0.77 C-22.67 -1.41 -22.67 -1.41 -27.68 1.87 C-30.05 4.12 -31.98 6.44 -34 9 C-37.8 11.44 -41.59 11.46 -46 11 C-47.68 10.37 -49.35 9.71 -51 9 C-53.81 8.88 -53.81 8.88 -56 9 C-56.66 10.65 -57.32 12.3 -58 14 C-58.33 13.01 -58.66 12.02 -59 11 C-57.01 8.48 -57.01 8.48 -54 6 C-51.12 5.87 -48.71 5.95 -45.88 6.25 C-39.33 6.64 -35.82 5.99 -30.62 1.56 C-29.79 0.74 -28.96 -0.08 -28.1 -0.93 C-21.65 -7.28 -7.95 -1.92 0 0 Z " fill="#000000" transform="translate(409,614)"/>
<path d="M0 0 C7.15 2.07 7.15 2.07 9 5 C8.72 6.68 8.39 8.35 8 10 C7.38 9.98 6.75 9.95 6.11 9.93 C-1.47 9.78 -8.84 10.42 -16.36 11.22 C-23.58 11.95 -30.76 12.23 -38 12.44 C-58.99 13.16 -58.99 13.16 -68.5 19.62 C-74.25 23.33 -78.82 23.37 -85.44 23.31 C-93.91 23.25 -98.82 24.58 -104.92 30.58 C-106.31 31.95 -106.31 31.95 -109 34 C-112.35 33.8 -112.35 33.8 -115 33 C-115.62 31.12 -115.62 31.12 -116 29 C-114 27 -114 27 -110.94 26.81 C-106.31 26.32 -103.53 23.55 -100.11 20.59 C-96 17.49 -91.79 17.84 -86.75 17.62 C-79.04 17.18 -73.59 15.78 -67.12 11.44 C-57.67 5.4 -45.43 6.64 -34.62 6.5 C-6.38 6.14 -6.38 6.14 -1.68 1.92 C-1.4 1.61 -1.4 1.61 0 0 Z " fill="#000000" transform="translate(461,621)"/>
<path d="M0 0 C0 0.99 0 1.98 0 3 C-11.09 13.76 -28.39 19.84 -43.5 20.31 C-51.82 20.17 -59.52 18.51 -66 13 C-67.38 10.25 -67.38 10.25 -68 8 C-67.48 8.27 -66.97 8.54 -66.44 8.81 C-52.52 15.59 -41.5 14.62 -27 10 C-23.14 8.62 -19.36 7.05 -15.57 5.46 C-10.47 3.37 -5.26 1.66 0 0 Z " fill="#000000" transform="translate(428,656)"/>
<path d="M0 0 C3.06 2.66 4.99 5.45 7 8.94 C9.97 13.72 13.31 17.82 17.12 21.94 C17.63 22.48 18.13 23.02 18.65 23.58 C20.96 26.03 23.21 28.17 25.87 30.25 C26.57 30.83 27.27 31.41 28 32 C28 32.66 28 33.32 28 34 C17.41 34.77 17.41 34.77 12.81 32.25 C11.49 30.88 11.49 30.88 10 29 C9.28 28.1 8.56 27.2 7.82 26.28 C4.32 21.74 1.02 17.16 -1.94 12.25 C-2.28 11.71 -2.28 11.71 -4 9 C-4.66 9 -5.32 9 -6 9 C-7.27 11.66 -8.54 14.33 -9.81 17 C-10.17 17.74 -10.53 18.49 -10.89 19.25 C-13.19 24.1 -15.18 28.96 -17 34 C-19.97 34 -22.94 34 -26 34 C-23.08 21.43 -19.08 8.66 -9 0 C-5.42 -1.19 -3.63 -0.96 0 0 Z " fill="#000000" transform="translate(522,910)"/>
</g></svg>
